<svg width="24" height="24" viewBox="0 0 24 24" fill="none" xmlns="http://www.w3.org/2000/svg">
<path fill-rule="evenodd" clip-rule="evenodd" d="M12 2C8.68629 2 6 4.68629 6 8C6 12.0121 9.87325 16.5912 11.2339 17.9106C11.6063 18.2721 12.1937 18.2721 12.5661 17.9106C13.9268 16.5912 17.7999 12.0121 17.7999 8C17.7999 4.68629 15.1136 2 12 2ZM12 10C10.8954 10 10 9.10457 10 8C10 6.89543 10.8954 6 12 6C13.1046 6 14 6.89543 14 8C14 9.10457 13.1046 10 12 10Z" fill="#E74C3C"/>
<path d="M12 22C12 22 4 16 4 8C4 3.58172 7.58172 0 12 0C16.4183 0 20 3.58172 20 8C20 16 12 22 12 22Z" fill="#E74C3C" opacity="0.5"/>
</svg>